<svg width="174" height="81" viewBox="0 0 174 81" fill="none" xmlns="http://www.w3.org/2000/svg">
<g filter="url(#filter0_d_525_5739)">
<path d="M22.56 25.9063C22.3067 25.4397 21.94 25.0863 21.46 24.8463C20.9933 24.593 20.44 24.4663 19.8 24.4663C18.6933 24.4663 17.8067 24.833 17.14 25.5663C16.4733 26.2863 16.14 27.253 16.14 28.4663C16.14 29.7597 16.4867 30.773 17.18 31.5063C17.8867 32.2263 18.8533 32.5863 20.08 32.5863C20.92 32.5863 21.6267 32.373 22.2 31.9463C22.7867 31.5197 23.2133 30.9063 23.48 30.1063H19.14V27.5863H26.58V30.7663C26.3267 31.6197 25.8933 32.413 25.28 33.1463C24.68 33.8797 23.9133 34.473 22.98 34.9263C22.0467 35.3797 20.9933 35.6063 19.82 35.6063C18.4333 35.6063 17.1933 35.3063 16.1 34.7063C15.02 34.093 14.1733 33.2463 13.56 32.1663C12.96 31.0863 12.66 29.853 12.66 28.4663C12.66 27.0797 12.96 25.8463 13.56 24.7663C14.1733 23.673 15.02 22.8263 16.1 22.2263C17.18 21.613 18.4133 21.3063 19.8 21.3063C21.48 21.3063 22.8933 21.713 24.04 22.5263C25.2 23.3397 25.9667 24.4663 26.34 25.9063H22.56ZM33.3544 35.6663C32.261 35.6663 31.2744 35.433 30.3944 34.9663C29.5277 34.4997 28.841 33.833 28.3344 32.9663C27.841 32.0997 27.5944 31.0863 27.5944 29.9263C27.5944 28.7797 27.8477 27.773 28.3544 26.9063C28.861 26.0263 29.5544 25.353 30.4344 24.8863C31.3144 24.4197 32.301 24.1863 33.3944 24.1863C34.4877 24.1863 35.4744 24.4197 36.3544 24.8863C37.2344 25.353 37.9277 26.0263 38.4344 26.9063C38.941 27.773 39.1944 28.7797 39.1944 29.9263C39.1944 31.073 38.9344 32.0863 38.4144 32.9663C37.9077 33.833 37.2077 34.4997 36.3144 34.9663C35.4344 35.433 34.4477 35.6663 33.3544 35.6663ZM33.3544 32.7063C34.0077 32.7063 34.561 32.4663 35.0144 31.9863C35.481 31.5063 35.7144 30.8197 35.7144 29.9263C35.7144 29.033 35.4877 28.3463 35.0344 27.8663C34.5944 27.3863 34.0477 27.1463 33.3944 27.1463C32.7277 27.1463 32.1744 27.3863 31.7344 27.8663C31.2944 28.333 31.0744 29.0197 31.0744 29.9263C31.0744 30.8197 31.2877 31.5063 31.7144 31.9863C32.1544 32.4663 32.701 32.7063 33.3544 32.7063ZM40.1288 29.9063C40.1288 28.7597 40.3421 27.753 40.7688 26.8863C41.2088 26.0197 41.8021 25.353 42.5488 24.8863C43.2954 24.4197 44.1288 24.1863 45.0488 24.1863C45.7821 24.1863 46.4488 24.3397 47.0488 24.6463C47.6621 24.953 48.1421 25.3663 48.4888 25.8863V20.7063H51.9088V35.5063H48.4888V33.9063C48.1688 34.4397 47.7088 34.8663 47.1088 35.1863C46.5221 35.5063 45.8354 35.6663 45.0488 35.6663C44.1288 35.6663 43.2954 35.433 42.5488 34.9663C41.8021 34.4863 41.2088 33.813 40.7688 32.9463C40.3421 32.0663 40.1288 31.053 40.1288 29.9063ZM48.4888 29.9263C48.4888 29.073 48.2488 28.3997 47.7688 27.9063C47.3021 27.413 46.7288 27.1663 46.0488 27.1663C45.3688 27.1663 44.7888 27.413 44.3088 27.9063C43.8421 28.3863 43.6088 29.053 43.6088 29.9063C43.6088 30.7597 43.8421 31.4397 44.3088 31.9463C44.7888 32.4397 45.3688 32.6863 46.0488 32.6863C46.7288 32.6863 47.3021 32.4397 47.7688 31.9463C48.2488 31.453 48.4888 30.7797 48.4888 29.9263ZM53.503 29.9063C53.503 28.7597 53.7163 27.753 54.143 26.8863C54.583 26.0197 55.1763 25.353 55.923 24.8863C56.6696 24.4197 57.503 24.1863 58.423 24.1863C59.2096 24.1863 59.8963 24.3463 60.483 24.6663C61.083 24.9863 61.543 25.4063 61.863 25.9263V24.3463H65.283V35.5063H61.863V33.9263C61.5296 34.4463 61.063 34.8663 60.463 35.1863C59.8763 35.5063 59.1896 35.6663 58.403 35.6663C57.4963 35.6663 56.6696 35.433 55.923 34.9663C55.1763 34.4863 54.583 33.813 54.143 32.9463C53.7163 32.0663 53.503 31.053 53.503 29.9063ZM61.863 29.9263C61.863 29.073 61.623 28.3997 61.143 27.9063C60.6763 27.413 60.103 27.1663 59.423 27.1663C58.743 27.1663 58.163 27.413 57.683 27.9063C57.2163 28.3863 56.983 29.053 56.983 29.9063C56.983 30.7597 57.2163 31.4397 57.683 31.9463C58.163 32.4397 58.743 32.6863 59.423 32.6863C60.103 32.6863 60.6763 32.4397 61.143 31.9463C61.623 31.453 61.863 30.7797 61.863 29.9263ZM78.0772 29.7463C78.0772 30.0663 78.0572 30.3997 78.0172 30.7463H70.2772C70.3305 31.4397 70.5505 31.973 70.9372 32.3463C71.3372 32.7063 71.8239 32.8863 72.3972 32.8863C73.2505 32.8863 73.8439 32.5263 74.1772 31.8063H77.8172C77.6305 32.5397 77.2905 33.1997 76.7972 33.7863C76.3172 34.373 75.7105 34.833 74.9772 35.1663C74.2439 35.4997 73.4239 35.6663 72.5172 35.6663C71.4239 35.6663 70.4505 35.433 69.5972 34.9663C68.7439 34.4997 68.0772 33.833 67.5972 32.9663C67.1172 32.0997 66.8772 31.0863 66.8772 29.9263C66.8772 28.7663 67.1105 27.753 67.5772 26.8863C68.0572 26.0197 68.7239 25.353 69.5772 24.8863C70.4305 24.4197 71.4105 24.1863 72.5172 24.1863C73.5972 24.1863 74.5572 24.413 75.3972 24.8663C76.2372 25.3197 76.8905 25.9663 77.3572 26.8063C77.8372 27.6463 78.0772 28.6263 78.0772 29.7463ZM74.5772 28.8463C74.5772 28.2597 74.3772 27.793 73.9772 27.4463C73.5772 27.0997 73.0772 26.9263 72.4772 26.9263C71.9039 26.9263 71.4172 27.093 71.0172 27.4263C70.6305 27.7597 70.3905 28.233 70.2972 28.8463H74.5772ZM84.2214 35.6663C83.2481 35.6663 82.3814 35.4997 81.6214 35.1663C80.8614 34.833 80.2614 34.3797 79.8214 33.8063C79.3814 33.2197 79.1347 32.5663 79.0814 31.8463H82.4614C82.5014 32.233 82.6814 32.5463 83.0014 32.7863C83.3214 33.0263 83.7147 33.1463 84.1814 33.1463C84.6081 33.1463 84.9347 33.0663 85.1614 32.9063C85.4014 32.733 85.5214 32.513 85.5214 32.2463C85.5214 31.9263 85.3547 31.693 85.0214 31.5463C84.6881 31.3863 84.1481 31.213 83.4014 31.0263C82.6014 30.8397 81.9347 30.6463 81.4014 30.4463C80.8681 30.233 80.4081 29.9063 80.0214 29.4663C79.6347 29.013 79.4414 28.4063 79.4414 27.6463C79.4414 27.0063 79.6147 26.4263 79.9614 25.9063C80.3214 25.373 80.8414 24.953 81.5214 24.6463C82.2147 24.3397 83.0347 24.1863 83.9814 24.1863C85.3814 24.1863 86.4814 24.533 87.2814 25.2263C88.0947 25.9197 88.5614 26.8397 88.6814 27.9863H85.5214C85.4681 27.5997 85.2947 27.293 85.0014 27.0663C84.7214 26.8397 84.3481 26.7263 83.8814 26.7263C83.4814 26.7263 83.1747 26.8063 82.9614 26.9663C82.7481 27.113 82.6414 27.3197 82.6414 27.5863C82.6414 27.9063 82.8081 28.1463 83.1414 28.3063C83.4881 28.4663 84.0214 28.6263 84.7414 28.7863C85.5681 28.9997 86.2414 29.213 86.7614 29.4263C87.2814 29.6263 87.7347 29.9597 88.1214 30.4263C88.5214 30.8797 88.7281 31.493 88.7414 32.2663C88.7414 32.9197 88.5547 33.5063 88.1814 34.0263C87.8214 34.533 87.2947 34.933 86.6014 35.2263C85.9214 35.5197 85.1281 35.6663 84.2214 35.6663ZM92.3538 23.1863C91.7538 23.1863 91.2604 23.013 90.8738 22.6663C90.5004 22.3063 90.3138 21.8663 90.3138 21.3463C90.3138 20.813 90.5004 20.373 90.8738 20.0263C91.2604 19.6663 91.7538 19.4863 92.3538 19.4863C92.9404 19.4863 93.4204 19.6663 93.7938 20.0263C94.1804 20.373 94.3738 20.813 94.3738 21.3463C94.3738 21.8663 94.1804 22.3063 93.7938 22.6663C93.4204 23.013 92.9404 23.1863 92.3538 23.1863ZM94.0538 24.3463V35.5063H90.6338V24.3463H94.0538ZM99.7522 20.7063V35.5063H96.3322V20.7063H99.7522ZM27.48 48.2263C28.8667 48.2263 29.9667 48.6463 30.78 49.4863C31.6067 50.3263 32.02 51.493 32.02 52.9863V59.5063H28.62V53.4463C28.62 52.7263 28.4267 52.173 28.04 51.7863C27.6667 51.3863 27.1467 51.1863 26.48 51.1863C25.8133 51.1863 25.2867 51.3863 24.9 51.7863C24.5267 52.173 24.34 52.7263 24.34 53.4463V59.5063H20.94V53.4463C20.94 52.7263 20.7467 52.173 20.36 51.7863C19.9867 51.3863 19.4667 51.1863 18.8 51.1863C18.1333 51.1863 17.6067 51.3863 17.22 51.7863C16.8467 52.173 16.66 52.7263 16.66 53.4463V59.5063H13.24V48.3463H16.66V49.7463C17.0067 49.2797 17.46 48.913 18.02 48.6463C18.58 48.3663 19.2133 48.2263 19.92 48.2263C20.76 48.2263 21.5067 48.4063 22.16 48.7663C22.8267 49.1263 23.3467 49.6397 23.72 50.3063C24.1067 49.693 24.6333 49.193 25.3 48.8063C25.9667 48.4197 26.6933 48.2263 27.48 48.2263ZM39.2919 59.6663C38.1985 59.6663 37.2119 59.433 36.3319 58.9663C35.4652 58.4997 34.7785 57.833 34.2719 56.9663C33.7785 56.0997 33.5319 55.0863 33.5319 53.9263C33.5319 52.7797 33.7852 51.773 34.2919 50.9063C34.7985 50.0263 35.4919 49.353 36.3719 48.8863C37.2519 48.4197 38.2385 48.1863 39.3319 48.1863C40.4252 48.1863 41.4119 48.4197 42.2919 48.8863C43.1719 49.353 43.8652 50.0263 44.3719 50.9063C44.8785 51.773 45.1319 52.7797 45.1319 53.9263C45.1319 55.073 44.8719 56.0863 44.3519 56.9663C43.8452 57.833 43.1452 58.4997 42.2519 58.9663C41.3719 59.433 40.3852 59.6663 39.2919 59.6663ZM39.2919 56.7063C39.9452 56.7063 40.4985 56.4663 40.9519 55.9863C41.4185 55.5063 41.6519 54.8197 41.6519 53.9263C41.6519 53.033 41.4252 52.3463 40.9719 51.8663C40.5319 51.3863 39.9852 51.1463 39.3319 51.1463C38.6652 51.1463 38.1119 51.3863 37.6719 51.8663C37.2319 52.333 37.0119 53.0197 37.0119 53.9263C37.0119 54.8197 37.2252 55.5063 37.6519 55.9863C38.0919 56.4663 38.6385 56.7063 39.2919 56.7063ZM52.9662 56.6063V59.5063H51.2262C49.9862 59.5063 49.0196 59.2063 48.3262 58.6063C47.6329 57.993 47.2862 56.9997 47.2862 55.6263V51.1863H45.9262V48.3463H47.2862V45.6263H50.7062V48.3463H52.9462V51.1863H50.7062V55.6663C50.7062 55.9997 50.7862 56.2397 50.9462 56.3863C51.1062 56.533 51.3729 56.6063 51.7462 56.6063H52.9662ZM59.7513 59.6663C58.6579 59.6663 57.6713 59.433 56.7913 58.9663C55.9246 58.4997 55.2379 57.833 54.7313 56.9663C54.2379 56.0997 53.9913 55.0863 53.9913 53.9263C53.9913 52.7797 54.2446 51.773 54.7513 50.9063C55.2579 50.0263 55.9513 49.353 56.8313 48.8863C57.7113 48.4197 58.6979 48.1863 59.7913 48.1863C60.8846 48.1863 61.8713 48.4197 62.7513 48.8863C63.6313 49.353 64.3246 50.0263 64.8313 50.9063C65.3379 51.773 65.5913 52.7797 65.5913 53.9263C65.5913 55.073 65.3313 56.0863 64.8113 56.9663C64.3046 57.833 63.6046 58.4997 62.7113 58.9663C61.8313 59.433 60.8446 59.6663 59.7513 59.6663ZM59.7513 56.7063C60.4046 56.7063 60.9579 56.4663 61.4113 55.9863C61.8779 55.5063 62.1113 54.8197 62.1113 53.9263C62.1113 53.033 61.8846 52.3463 61.4313 51.8663C60.9913 51.3863 60.4446 51.1463 59.7913 51.1463C59.1246 51.1463 58.5713 51.3863 58.1313 51.8663C57.6913 52.333 57.4713 53.0197 57.4713 53.9263C57.4713 54.8197 57.6846 55.5063 58.1113 55.9863C58.5513 56.4663 59.0979 56.7063 59.7513 56.7063ZM70.6256 50.2063C71.0256 49.593 71.5256 49.113 72.1256 48.7663C72.7256 48.4063 73.3923 48.2263 74.1256 48.2263V51.8463H73.1856C72.3323 51.8463 71.6923 52.033 71.2656 52.4063C70.839 52.7663 70.6256 53.4063 70.6256 54.3263V59.5063H67.2056V48.3463H70.6256V50.2063ZM80.1003 59.6663C79.127 59.6663 78.2603 59.4997 77.5003 59.1663C76.7403 58.833 76.1403 58.3797 75.7003 57.8063C75.2603 57.2197 75.0136 56.5663 74.9603 55.8463H78.3403C78.3803 56.233 78.5603 56.5463 78.8803 56.7863C79.2003 57.0263 79.5936 57.1463 80.0603 57.1463C80.487 57.1463 80.8136 57.0663 81.0403 56.9063C81.2803 56.733 81.4003 56.513 81.4003 56.2463C81.4003 55.9263 81.2336 55.693 80.9003 55.5463C80.567 55.3863 80.027 55.213 79.2803 55.0263C78.4803 54.8397 77.8136 54.6463 77.2803 54.4463C76.747 54.233 76.287 53.9063 75.9003 53.4663C75.5136 53.013 75.3203 52.4063 75.3203 51.6463C75.3203 51.0063 75.4936 50.4263 75.8403 49.9063C76.2003 49.373 76.7203 48.953 77.4003 48.6463C78.0936 48.3397 78.9136 48.1863 79.8603 48.1863C81.2603 48.1863 82.3603 48.533 83.1603 49.2263C83.9736 49.9197 84.4403 50.8397 84.5603 51.9863H81.4003C81.347 51.5997 81.1736 51.293 80.8803 51.0663C80.6003 50.8397 80.227 50.7263 79.7603 50.7263C79.3603 50.7263 79.0536 50.8063 78.8403 50.9663C78.627 51.113 78.5203 51.3197 78.5203 51.5863C78.5203 51.9063 78.687 52.1463 79.0203 52.3063C79.367 52.4663 79.9003 52.6263 80.6203 52.7863C81.447 52.9997 82.1203 53.213 82.6403 53.4263C83.1603 53.6263 83.6136 53.9597 84.0003 54.4263C84.4003 54.8797 84.607 55.493 84.6203 56.2663C84.6203 56.9197 84.4336 57.5063 84.0603 58.0263C83.7003 58.533 83.1736 58.933 82.4803 59.2263C81.8003 59.5197 81.007 59.6663 80.1003 59.6663Z" fill="white"/>
</g>
<g clip-path="url(#clip0_525_5739)">
<g filter="url(#filter1_d_525_5739)">
<path fill-rule="evenodd" clip-rule="evenodd" d="M161.052 55.9632H159.115V59.7207C159.115 61.0317 158.046 62.1005 156.735 62.1005H154.297C152.986 62.1005 151.917 61.0317 151.917 59.7207V55.9632H132.787V59.7207C132.787 61.0317 131.718 62.1005 130.407 62.1005H127.977C126.666 62.1005 125.598 61.0317 125.598 59.7207V55.9632H123.719V26.1533C123.719 23.4061 125.322 21.4104 128.545 20.1663C131.668 18.9472 135.651 18.3293 142.381 18.3293C149.111 18.3293 153.094 18.9472 156.217 20.1663C159.441 21.4104 161.044 23.4061 161.044 26.1533V55.9632H161.052ZM133.447 48.9324H151.324C151.458 48.9324 151.566 49.0994 151.566 49.3165V50.4521C151.566 50.6609 151.458 50.8362 151.324 50.8362H133.447C133.313 50.8362 133.204 50.6692 133.204 50.4521V49.3165C133.213 49.0994 133.321 48.9324 133.447 48.9324ZM133.447 51.8132H151.324C151.458 51.8132 151.566 51.9802 151.566 52.1973V53.3413C151.566 53.55 151.458 53.7254 151.324 53.7254H133.447C133.313 53.7254 133.204 53.5584 133.204 53.3413V52.1973C133.213 51.9885 133.321 51.8132 133.447 51.8132ZM126.842 26.312H140.544C140.928 26.312 141.237 26.6293 141.237 27.0134V37.1921C141.237 37.5763 140.92 37.8852 140.544 37.8852H126.842C126.458 37.8852 126.149 37.5679 126.149 37.1921V27.005C126.14 26.6209 126.458 26.312 126.842 26.312ZM144.177 26.312H157.879C158.263 26.312 158.58 26.6293 158.58 27.0134V37.1921C158.58 37.5763 158.263 37.8852 157.879 37.8852H144.177C143.792 37.8852 143.483 37.5679 143.483 37.1921V27.005C143.483 26.6209 143.792 26.312 144.177 26.312ZM159.09 51.6462C159.09 50.9364 158.848 50.3436 158.363 49.8593C157.879 49.375 157.269 49.1328 156.576 49.1328C155.892 49.1328 155.299 49.375 154.806 49.8593C154.305 50.3436 154.063 50.9364 154.063 51.6462C154.063 52.3309 154.305 52.9071 154.806 53.3997C155.307 53.884 155.9 54.1262 156.576 54.1262C157.278 54.1262 157.879 53.884 158.363 53.3997C158.848 52.9071 159.09 52.3309 159.09 51.6462ZM130.724 51.6462C130.724 50.9364 130.482 50.3436 129.998 49.8593C129.514 49.375 128.921 49.1328 128.211 49.1328C127.518 49.1328 126.908 49.375 126.424 49.8593C125.94 50.3436 125.706 50.9364 125.706 51.6462C125.706 52.3309 125.94 52.9071 126.424 53.3997C126.908 53.884 127.518 54.1262 128.211 54.1262C128.921 54.1262 129.514 53.884 129.998 53.3997C130.474 52.9071 130.724 52.3309 130.724 51.6462Z" fill="white"/>
</g>
</g>
<defs>
<filter id="filter0_d_525_5739" x="10.6602" y="19.4864" width="91.0918" height="44.18" filterUnits="userSpaceOnUse" color-interpolation-filters="sRGB">
<feFlood flood-opacity="0" result="BackgroundImageFix"/>
<feColorMatrix in="SourceAlpha" type="matrix" values="0 0 0 0 0 0 0 0 0 0 0 0 0 0 0 0 0 0 127 0" result="hardAlpha"/>
<feOffset dy="2"/>
<feGaussianBlur stdDeviation="1"/>
<feComposite in2="hardAlpha" operator="out"/>
<feColorMatrix type="matrix" values="0 0 0 0 0 0 0 0 0 0 0 0 0 0 0 0 0 0 0.1 0"/>
<feBlend mode="normal" in2="BackgroundImageFix" result="effect1_dropShadow_525_5739"/>
<feBlend mode="normal" in="SourceGraphic" in2="effect1_dropShadow_525_5739" result="shape"/>
</filter>
<filter id="filter1_d_525_5739" x="121.719" y="18.3293" width="41.3335" height="47.7713" filterUnits="userSpaceOnUse" color-interpolation-filters="sRGB">
<feFlood flood-opacity="0" result="BackgroundImageFix"/>
<feColorMatrix in="SourceAlpha" type="matrix" values="0 0 0 0 0 0 0 0 0 0 0 0 0 0 0 0 0 0 127 0" result="hardAlpha"/>
<feOffset dy="2"/>
<feGaussianBlur stdDeviation="1"/>
<feComposite in2="hardAlpha" operator="out"/>
<feColorMatrix type="matrix" values="0 0 0 0 0 0 0 0 0 0 0 0 0 0 0 0 0 0 0.1 0"/>
<feBlend mode="normal" in2="BackgroundImageFix" result="effect1_dropShadow_525_5739"/>
<feBlend mode="normal" in="SourceGraphic" in2="effect1_dropShadow_525_5739" result="shape"/>
</filter>
<clipPath id="clip0_525_5739">
<rect width="40" height="48" fill="white" transform="translate(122 16.5063)"/>
</clipPath>
</defs>
</svg>
